<?xml version="1.0" standalone="no"?>
<!DOCTYPE svg PUBLIC "-//W3C//DTD SVG 20010904//EN"
 "http://www.w3.org/TR/2001/REC-SVG-20010904/DTD/svg10.dtd">
<svg version="1.0" xmlns="http://www.w3.org/2000/svg"
 width="1024.000000pt" height="1024.000000pt" viewBox="0 0 1024.000000 1024.000000"
 preserveAspectRatio="xMidYMid meet">
<metadata>
Created by potrace 1.14, written by Peter Selinger 2001-2017
</metadata>
<g transform="translate(0.000000,1024.000000) scale(0.100000,-0.100000)"
fill="#000000" stroke="none">
<path d="M5788 6363 c46 -2 118 -2 160 0 42 1 5 3 -83 3 -88 0 -123 -2 -77 -3z"/>
<path d="M6178 5130 l2 -1240 198 -1 c108 -1 206 -2 217 -2 11 0 41 1 68 1
l47 2 0 1240 0 1240 -267 0 -268 0 3 -1240z"/>
<path d="M5614 5743 c-44 -43 -154 -147 -245 -232 -201 -190 -178 -168 -290
-277 -52 -51 -123 -117 -158 -147 l-65 -56 -55 51 c-95 88 -447 426 -603 578
-82 80 -153 147 -159 148 -10 4 -11 -53 -9 -513 0 -179 5 -312 10 -315 5 -3
72 -66 147 -140 132 -129 337 -322 488 -460 39 -35 95 -90 125 -122 l55 -58
66 62 c36 35 193 183 350 329 156 146 307 287 334 313 28 25 62 54 78 63 l27
17 0 418 c0 230 -3 418 -8 418 -4 0 -43 -35 -88 -77z"/>
</g>
</svg>
